<svg width="140" height="140" viewBox="0 0 140 140" fill="none" xmlns="http://www.w3.org/2000/svg">
<defs>
  <clipPath id="favicon-clip">
    <rect width="140" height="140" rx="28" ry="28"/>
  </clipPath>
</defs>
<g clip-path="url(#favicon-clip)">
<rect width="140" height="140" fill="#273C55"/>
<path d="M53.2083 16C53.8334 16.4614 53.0468 17.039 53.5986 17.9628C53.7521 17.9179 53.6915 17.9544 53.8075 17.8514C56.6355 15.3434 61.1804 15.784 64.4338 17.0941C66.9731 18.1169 69.3362 19.5977 72.1175 19.5167C72.3751 19.5092 72.4108 19.4795 72.6787 19.5466L72.705 19.6933C72.1984 20.5113 71.6137 20.6587 70.7236 20.8996C72.6082 22.072 74.9487 24.1571 76.6848 25.6008C77.3052 26.1166 78.0459 27.6782 78.0148 28.5061L77.9114 28.5961C77.6041 28.4871 76.7384 27.6114 76.0278 27.1878C77.0157 28.8773 77.5204 30.4314 77.2441 32.4244C77.1736 32.9293 76.7901 34.2495 76.4037 34.5282C76.3793 34.0203 76.4169 33.2902 76.0738 32.948L75.9723 32.9871C75.8623 33.8039 75.7025 35.5639 74.7917 35.8916C74.5248 35.5973 74.8246 34.3246 74.7927 33.5785L74.7842 33.4152C74.5417 33.804 74.3894 34.1888 73.9918 34.3012C73.7042 34.1648 73.5933 33.9 73.4166 33.6178C73.0744 34.6127 72.5527 35.7642 71.8459 36.5548C71.3665 37.0916 70.9529 37.4121 70.5384 38.022C70.529 38.3675 70.5732 38.3032 70.8232 38.6584L70.6672 38.7788C70.4068 38.6538 70.3701 38.6254 70.0806 38.561C68.8164 39.3867 70.3683 41.9637 69.8757 42.8775C69.5496 43.4812 68.6679 43.2752 68.1678 43.423C67.4873 43.624 67.8379 44.3319 67.4525 44.9771C67.0211 45.343 66.7325 45.0071 66.4608 45.3136C66.4984 45.5923 66.5351 45.6569 66.4308 45.9157C66.2371 46.0942 66.1046 46.1319 65.8386 46.153C64.4062 46.267 64.8498 47.8128 63.3506 48.1284C60.8209 48.6608 59.2185 45.8573 56.9729 45.739C56.2748 45.7021 55.5239 46.7862 55.1536 47.2978C55.7136 47.9642 56.5029 48.7258 56.9649 49.4591C57.1939 49.8225 57.336 50.5898 57.6181 51.1462L60.5741 56.9463C61.1493 58.0612 61.9227 59.4302 62.3885 60.5619C61.9088 60.9772 61.5798 61.1851 61.0486 61.5298C61.8746 63.056 62.749 64.5555 63.6705 66.0262C68.1838 66.4237 74.7146 68.1709 79.3477 67.687C80.0442 67.6143 82.3302 65.8809 84.2393 65.3622C82.7983 63.1626 81.3385 60.9752 79.86 58.8003C79.3571 58.0479 78.8364 57.3121 78.325 56.5675C77.793 55.792 78.6418 55.1765 79.4229 55.2358C79.6692 55.3412 79.8008 55.5001 79.9493 55.7203C82.0285 58.7972 83.9742 62.0432 86.1455 65.0532C87.2274 65.2606 88.6044 65.8945 89.409 66.6724C89.7737 66.9879 89.5745 67.5487 89.6995 67.9143C90.1018 69.0961 90.411 69.0946 89.7145 70.2552C90.13 70.8995 90.5031 71.8639 90.8509 72.5962C90.8737 72.5956 90.8967 72.5951 90.92 72.5947C91.0634 72.5918 91.2177 72.5899 91.3805 72.5889C91.5275 72.5879 91.6815 72.5876 91.8411 72.5877C92.0131 72.5879 92.1916 72.5886 92.3745 72.5896C92.5018 72.5904 92.6312 72.5913 92.7621 72.5923C92.9185 72.5935 93.077 72.5948 93.2365 72.5962C93.3848 72.5974 93.534 72.5987 93.6832 72.5999C93.8113 72.6009 93.9394 72.6019 94.067 72.6028C94.1957 72.6036 94.3238 72.6044 94.4508 72.605C94.5801 72.6056 94.7082 72.606 94.8346 72.6061C94.9646 72.6063 95.0928 72.6061 95.2183 72.6057C95.3493 72.6052 95.4775 72.6044 95.6021 72.6031C95.7343 72.6017 95.8626 72.5999 95.9859 72.5974C96.0921 72.5953 96.1946 72.5927 96.2929 72.5896C96.3725 72.5871 96.4494 72.5843 96.5232 72.5811C96.6895 72.5738 96.7295 72.6726 96.7253 72.821C96.7232 72.8965 96.7097 72.9848 96.6955 73.0785C96.6792 73.1868 96.6619 73.3023 96.6605 73.4135C96.6599 73.4661 96.6628 73.5176 96.6709 73.5671C96.6835 73.6437 96.7089 73.7152 96.7534 73.777C96.3154 74.0768 88.9016 73.7808 87.8498 73.7761C87.9006 73.734 87.9583 73.6594 88.0196 73.5671C88.0653 73.4982 88.113 73.4194 88.1614 73.3368C88.2108 73.2526 88.2609 73.1643 88.3103 73.0785C88.3628 72.9874 88.4145 72.899 88.4638 72.821C88.5302 72.716 88.5922 72.6298 88.6458 72.5811L88.8056 72.5841L89.2456 72.5922L89.8454 72.6032L90.3827 72.6131L90.5323 72.6159C89.9504 72.2174 89.3742 71.8104 88.8056 71.3939C88.3375 72.0115 88.1833 72.2174 87.4915 72.6366C87.0422 72.9082 86.6521 73.2006 86.1013 73.209C84.6848 73.2316 83.2692 73.2541 81.8565 73.1808C80.768 73.1009 79.797 72.8377 78.6606 72.8744C74.3744 73.0116 70.0976 73.2692 65.8066 73.2381C64.3916 73.2109 62.8695 73.3171 61.4779 73.0699C59.7823 72.7682 58.3751 70.9747 57.3969 69.6706C56.3877 68.325 55.4574 66.8237 54.5579 65.4001C54.2359 65.6005 53.7964 65.8123 53.4523 65.9903C53.0529 65.3663 51.8894 63.142 51.3882 62.9145C51.1254 63.5033 51.3882 66.2188 51.3882 66.7561C51.3882 67.6772 51.3882 68.2913 51.3882 68.5215C51.3882 70.901 52.7972 73.506 52.6673 75.9772C53.5012 77.6221 54.3672 77.9389 52.9742 79.6496L53.3948 80.4693C54.5019 80.6573 55.8661 81.0323 56.9769 81.3058L63.1543 82.8511C63.154 81.445 63.1639 80.0397 63.1839 78.6335C62.1061 78.642 58.6449 78.7849 57.8474 78.4549C57.1445 77.7199 57.2423 74.9799 57.6923 74.1161C57.9811 73.5615 60.2851 73.7984 60.9181 73.7805C61.7406 73.7579 62.6812 73.7805 63.5195 73.7805L76.2383 73.7749L88.7146 73.776L89.2456 73.7761L89.8454 73.7763L90.3827 73.7763L90.92 73.7764L91.3805 73.7764L91.8411 73.7765L92.3745 73.7765L92.7621 73.7766L93.2365 73.7766L93.6832 73.7767L94.067 73.7767L94.4508 73.7767L94.8346 73.7768L95.2183 73.7768L95.6021 73.7769L95.9859 73.7769L96.2929 73.7769L103.571 73.7777C107.879 73.7786 112.194 73.7824 116.501 73.7702C116.862 73.7692 117.384 73.8303 117.652 74.0954C117.955 74.3934 117.944 74.7581 117.947 75.1463C117.97 76.1135 118.242 78.6815 116.911 78.6768C115.526 78.6721 113.998 78.6222 112.58 78.6551L112.582 111.118L112.581 119.12C112.58 120.139 112.647 122.978 112.441 123.778C111.85 124.007 107.963 124.099 107.578 123.8C107.238 122.941 107.4 117.825 107.396 116.456L107.377 101.343L107.372 89.5277C107.369 87.4419 107.297 84.858 107.408 82.8032L68.353 82.8107L68.3427 84.3071C71.6363 85.2349 76.3887 86.0921 77.9396 89.5098C79.2349 92.3617 78.2715 96.3622 77.8494 99.3804L76.2674 110.463C76.1396 111.348 75.6367 115.374 75.4722 115.837C75.2354 116.121 75.1903 116.122 74.8359 116.278L74.7372 116.32C74.9167 116.622 75.2561 116.802 75.5568 117.017C77.2845 118.253 79.0591 118.807 81.0424 119.431C81.942 119.739 82.8387 120.343 83.2053 121.252C83.4882 121.955 83.82 123.747 82.7034 123.88C81.5284 124.02 80.2745 123.973 79.0883 123.971L72.4371 123.955L67.2241 123.973C66.2879 123.977 64.2485 124.131 63.4176 123.654C63.264 123.566 63.1708 122.623 63.1696 122.362C63.1551 119.303 63.1654 116.24 63.1658 113.179L63.1619 103.954L63.1579 94.7294C62.8213 94.7012 62.446 94.6458 62.1071 94.6054C60.922 92.1756 58.715 92.8458 56.3431 92.8476L44.7581 92.8448C44.1738 92.8448 43.5747 92.8552 42.9997 92.8458C40.324 92.7988 38.1937 93.2716 36.0564 91.2826C34.3481 89.6922 33.4496 87.7549 33.314 85.4295C32.5168 85.3195 32.2464 85.1954 32.1462 84.2987C32.0756 83.5542 32.2053 82.7759 32.1878 82.0334C31.9743 72.8584 34.083 63.3974 37.5905 54.952C39.3925 50.9469 41.5351 46.8654 45.2214 44.2873C46.1396 43.6452 44.805 41.2626 47.8981 42.2054C48.2953 41.5668 49.4642 39.5124 49.0293 38.8355L48.5064 38.8809C48.4555 38.8432 48.4048 38.8056 48.3539 38.768C47.9604 37.0336 47.039 34.8808 46.5014 33.2412C46.1567 32.1898 46.2643 31.7224 46.0055 31.2072L45.7336 31.2266C45.5131 31.0961 45.4872 30.9897 45.4408 30.7266C44.6362 26.1659 46.9196 20.187 51.831 19.1567C51.3981 18.9646 50.8286 18.7973 50.658 18.3941C51.2098 17.667 51.7089 18.3535 52.2859 18.3249C52.6998 17.0861 51.998 17.0004 53.2083 16ZM79.7594 57.9891C80.0132 57.7986 80.282 57.5837 80.5537 57.4268C80.4108 57.2111 80.0827 56.6306 79.9013 56.5524L79.0807 57.0845C79.2546 57.3282 79.5639 57.7952 79.7594 57.9891Z" fill="white"/>
<path d="M23.8916 53.5323C27.5276 53.2166 27.2519 56.1046 27.655 58.8976C27.927 60.8529 28.2238 62.8047 28.5454 64.7525C30.0476 73.9551 31.3342 83.4365 32.9239 92.5899C35.0262 92.681 37.679 92.6115 39.8124 92.6124L52.9797 92.6106C55.3508 92.6096 57.7294 92.5748 60.0973 92.6406C61.7191 92.6857 62.4075 93.5383 62.4073 95.14C62.407 97.8283 60.6968 97.801 58.6252 97.7973L61.4094 116.096C61.7111 118.066 62.2086 120.841 62.3635 122.874C62.3733 123.003 62.2866 123.023 62.1588 123.123C61.4093 123.214 59.263 123.238 58.568 123.057C58.366 122.868 58.3647 122.835 58.3088 122.494C57.9702 120.428 57.6535 118.314 57.3309 116.249L55.2796 103.004C55.0995 101.391 54.7389 99.4093 54.489 97.7756L34.3398 97.7888C33.2378 104.004 32.5198 110.541 31.4209 116.785C31.2462 117.778 30.6411 122.299 30.2983 123.029C29.7988 123.254 26.9303 123.265 26.5008 122.996C26.3517 122.339 27.4067 116.26 27.5733 115.175C28.5097 109.277 29.4002 103.371 30.2447 97.4598C27.6992 96.1392 28.0699 93.9838 27.568 91.5362C27.4742 91.0784 27.419 90.5943 27.3455 90.1309L25.5141 78.4434L23.2053 63.8392C22.8037 61.2996 22.3632 58.7563 22.0415 56.2068C21.8605 54.7718 22.6437 54.0047 23.8916 53.5323Z" fill="#FBC44C"/>
<path d="M96.5254 72.5433C96.5979 72.5401 96.6303 72.5595 96.6475 72.5833C96.6677 72.6117 96.6778 72.6598 96.6758 72.7318C96.6738 72.802 96.6614 72.8854 96.6475 72.9778L96.6465 72.9827C96.6302 73.0904 96.6128 73.2093 96.6113 73.3245C96.6106 73.3791 96.6134 73.4337 96.6221 73.4866C96.6282 73.5239 96.6375 73.5907 96.6514 73.6546C96.6583 73.6866 96.6672 73.7193 96.6768 73.7484C96.6794 73.7565 96.6844 73.7638 96.6875 73.7718C96.6846 73.7727 96.6819 73.7747 96.6787 73.7757C96.6546 73.7831 96.6237 73.7903 96.5859 73.7972C96.5104 73.811 96.4105 73.8231 96.2891 73.8333C95.1154 73.932 92.0309 73.8585 89.8828 73.8001C89.6604 73.7941 89.4481 73.7881 89.249 73.7825H89.2471C88.6367 73.7656 88.1507 73.7533 87.8818 73.7493C87.8977 73.7297 87.9158 73.709 87.9326 73.6868C87.9808 73.6233 88.0303 73.5533 88.0615 73.5062C88.108 73.4362 88.1565 73.3566 88.2051 73.2737C88.2545 73.1893 88.3053 73.1004 88.3545 73.015C88.4068 72.9241 88.4582 72.8361 88.5068 72.7591C88.5671 72.6638 88.6216 72.589 88.667 72.5433L88.8047 72.5462L89.2451 72.554H89.2461L89.8457 72.5579H90.3828L90.9209 72.556H90.9219C91.0648 72.5531 91.2185 72.5522 91.3809 72.5511C91.5277 72.5501 91.6824 72.549 91.8418 72.5491C92.0136 72.5493 92.1922 72.55 92.375 72.5511C92.502 72.5518 92.6311 72.553 92.7617 72.554L93.2363 72.5579L93.6836 72.5618L94.0674 72.5648C94.196 72.5656 94.3242 72.5661 94.4512 72.5667C94.5805 72.5673 94.7086 72.5675 94.835 72.5677C94.965 72.5678 95.0932 72.5681 95.2188 72.5677C95.3498 72.5672 95.4788 72.566 95.6035 72.5648C95.7357 72.5634 95.8639 72.5614 95.9873 72.5589C96.0936 72.5568 96.1964 72.5542 96.2949 72.5511C96.3746 72.5486 96.4515 72.5465 96.5254 72.5433Z" stroke="white" stroke-width="0.1"/>
</g>
</svg>
