<svg width="140" height="140" viewBox="0 0 140 140" fill="none" xmlns="http://www.w3.org/2000/svg">
<defs>
  <clipPath id="favicon-clip">
    <rect width="140" height="140" rx="28" ry="28"/>
  </clipPath>
</defs>
<g clip-path="url(#favicon-clip)">
<rect width="140" height="140" fill="white"/>
<path d="M53.5069 16.9609C54.121 17.4142 53.3483 17.9815 53.8903 18.8888C54.0411 18.8447 53.9815 18.8805 54.0955 18.7794C56.8732 16.3161 61.3372 16.7488 64.5327 18.0356C67.0268 19.0402 69.3478 20.4946 72.0797 20.415C72.3326 20.4077 72.3677 20.3785 72.6308 20.4444L72.6567 20.5885C72.1591 21.3919 71.5848 21.5368 70.7105 21.7733C72.5616 22.9249 74.8605 24.9729 76.5657 26.3909C77.175 26.8975 77.9025 28.4313 77.872 29.2445L77.7705 29.3328C77.4686 29.2258 76.6183 28.3657 75.9203 27.9497C76.8906 29.6091 77.3864 31.1356 77.115 33.0931C77.0457 33.589 76.6691 34.8856 76.2896 35.1594C76.2656 34.6606 76.3025 33.9435 75.9656 33.6073L75.8659 33.6457C75.7578 34.448 75.6009 36.1767 74.7063 36.4985C74.4441 36.2095 74.7386 34.9594 74.7072 34.2266L74.6989 34.0663C74.4607 34.4481 74.3111 34.8261 73.9206 34.9364C73.6381 34.8025 73.5292 34.5424 73.3556 34.2652C73.0195 35.2424 72.5071 36.3734 71.8129 37.15C71.342 37.6772 70.9358 37.992 70.5286 38.591C70.5194 38.9304 70.5628 38.8673 70.8084 39.2162L70.6551 39.3343C70.3994 39.2116 70.3634 39.1837 70.079 39.1204C68.8373 39.9315 70.3615 42.4626 69.8778 43.3601C69.5574 43.9531 68.6914 43.7507 68.2003 43.896C67.5318 44.0933 67.8762 44.7886 67.4977 45.4223C67.0739 45.7818 66.7905 45.4519 66.5237 45.7529C66.5606 46.0266 66.5966 46.0901 66.4941 46.3443C66.3039 46.5196 66.1738 46.5566 65.9125 46.5773C64.5056 46.6893 64.9412 48.2076 63.4688 48.5176C60.9841 49.0405 59.4102 46.2869 57.2045 46.1707C56.5189 46.1345 55.7813 47.1993 55.4176 47.7018C55.9677 48.3563 56.7429 49.1044 57.1967 49.8246C57.4216 50.1815 57.5612 50.9352 57.8383 51.4817L60.7416 57.1785C61.3067 58.2737 62.0663 59.6183 62.5238 60.7299C62.0526 61.1377 61.7295 61.342 61.2077 61.6805C62.019 63.1796 62.8779 64.6524 63.783 66.0969C68.2159 66.4873 74.6306 68.2034 79.1812 67.7282C79.8653 67.6567 82.1106 65.9542 83.9857 65.4447C82.5704 63.2843 81.1366 61.1358 79.6843 58.9996C79.1904 58.2606 78.6789 57.5379 78.1767 56.8066C77.6541 56.0448 78.4878 55.4403 79.255 55.4985C79.4969 55.602 79.6262 55.7581 79.772 55.9744C81.8142 58.9966 83.7253 62.1848 85.858 65.1413C86.9206 65.3449 88.2732 65.9675 89.0635 66.7316C89.4217 67.0415 89.226 67.5924 89.3487 67.9514C89.7439 69.1122 90.0476 69.1107 89.3635 70.2506C89.7716 70.8835 90.1381 71.8307 90.4797 72.5499C90.502 72.5494 90.5247 72.5489 90.5476 72.5485C90.6884 72.5457 90.8399 72.5438 90.9999 72.5428C91.1442 72.5418 91.2955 72.5415 91.4522 72.5416C91.6212 72.5418 91.7965 72.5425 91.9762 72.5435C92.1012 72.5442 92.2283 72.5451 92.3569 72.5461C92.5105 72.5473 92.6661 72.5486 92.8229 72.5499C92.9685 72.5512 93.115 72.5524 93.2616 72.5536C93.3874 72.5546 93.5133 72.5556 93.6385 72.5564C93.7649 72.5573 93.8908 72.558 94.0155 72.5586C94.1425 72.5592 94.2684 72.5596 94.3924 72.5597C94.5202 72.5599 94.646 72.5597 94.7694 72.5593C94.898 72.5588 95.0239 72.558 95.1463 72.5568C95.2762 72.5554 95.4022 72.5536 95.5233 72.5512C95.6276 72.5491 95.7283 72.5465 95.8249 72.5435C95.9031 72.5411 95.9785 72.5383 96.051 72.5352C96.2143 72.5279 96.2536 72.625 96.2496 72.7708C96.2475 72.8449 96.2342 72.9317 96.2203 73.0237C96.2042 73.1301 96.1873 73.2435 96.1859 73.3528C96.1853 73.4044 96.1881 73.455 96.1961 73.5036C96.2085 73.5789 96.2334 73.6491 96.2772 73.7098C95.847 74.0043 88.5651 73.7135 87.532 73.7089C87.5819 73.6675 87.6386 73.5943 87.6988 73.5036C87.7437 73.4359 87.7905 73.3586 87.8381 73.2774C87.8866 73.1947 87.9357 73.108 87.9843 73.0237C88.0358 72.9342 88.0866 72.8474 88.1351 72.7708C88.2003 72.6677 88.2612 72.583 88.3138 72.5352L88.4707 72.5381L88.9029 72.546L89.4921 72.5569L90.0198 72.5666L90.1667 72.5693C89.5952 72.1779 89.0293 71.7781 88.4707 71.3691C88.011 71.9757 87.8596 72.1779 87.1801 72.5896C86.7388 72.8565 86.3556 73.1436 85.8146 73.1519C84.4233 73.174 83.0329 73.1962 81.6453 73.1242C80.5762 73.0457 79.6225 72.7872 78.5063 72.8232C74.2964 72.958 70.0956 73.211 65.8811 73.1805C64.4913 73.1537 62.9963 73.2581 61.6294 73.0153C59.964 72.7189 58.5818 70.9574 57.621 69.6765C56.6297 68.3548 55.716 66.8802 54.8325 65.4819C54.5163 65.6788 54.0846 65.8868 53.7466 66.0616C53.3543 65.4488 52.2115 63.264 51.7192 63.0406C51.4611 63.6189 51.7192 66.2861 51.7192 66.8138C51.7192 67.7185 51.7192 68.3216 51.7192 68.5478C51.7192 70.8849 53.1032 73.4436 52.9756 75.8708C53.7946 77.4865 54.6453 77.7976 53.277 79.4779L53.6901 80.283C54.7776 80.4676 56.1174 80.836 57.2085 81.1046L63.2759 82.6224C63.2756 81.2413 63.2853 79.861 63.305 78.4799C62.2464 78.4882 58.8468 78.6285 58.0635 78.3045C57.3731 77.5825 57.4691 74.8913 57.9112 74.0428C58.1948 73.4981 60.4578 73.7308 61.0795 73.7132C61.8874 73.6911 62.8112 73.7132 63.6347 73.7132L76.1271 73.7077L88.3814 73.7088L88.9029 73.7089L89.4921 73.7091L90.0198 73.7091L90.5476 73.7092L90.9999 73.7092L91.4522 73.7093L91.9762 73.7093L92.3569 73.7094L92.8229 73.7094L93.2616 73.7094L93.6385 73.7095L94.0155 73.7095L94.3924 73.7096L94.7694 73.7096L95.1463 73.7096L95.5233 73.7097L95.8249 73.7097L102.974 73.7104C107.205 73.7114 111.443 73.7151 115.674 73.7031C116.028 73.7021 116.541 73.7621 116.804 74.0225C117.101 74.3152 117.091 74.6734 117.094 75.0547C117.116 76.0047 117.384 78.527 116.076 78.5224C114.715 78.5177 113.215 78.4688 111.822 78.5011L111.824 110.386L111.823 118.245C111.822 119.247 111.888 122.035 111.685 122.821C111.105 123.046 107.287 123.136 106.909 122.842C106.575 121.998 106.734 116.974 106.73 115.629L106.712 100.785L106.706 89.1802C106.704 87.1315 106.634 84.5935 106.742 82.5753L68.3821 82.5827L68.372 84.0525C71.607 84.9638 76.2748 85.8058 77.7982 89.1626C79.0704 91.9637 78.1241 95.893 77.7096 98.8575L76.1557 109.743C76.0302 110.612 75.5363 114.566 75.3747 115.022C75.142 115.3 75.0977 115.301 74.7497 115.455L74.6527 115.496C74.8291 115.792 75.1623 115.969 75.4578 116.18C77.1547 117.394 78.8977 117.938 80.8458 118.551C81.7293 118.854 82.6101 119.448 82.9701 120.34C83.248 121.03 83.5739 122.791 82.4771 122.921C81.3231 123.058 80.0915 123.012 78.9264 123.01L72.3936 122.995L67.2733 123.012C66.3538 123.017 64.3506 123.168 63.5346 122.699C63.3837 122.612 63.2922 121.686 63.291 121.431C63.2767 118.425 63.2869 115.418 63.2873 112.411L63.2834 103.35L63.2795 94.2894C62.9489 94.2617 62.5803 94.2072 62.2474 94.1675C61.0834 91.7809 58.9157 92.4392 56.586 92.441L45.2071 92.4383C44.6333 92.4383 44.0448 92.4484 43.48 92.4392C40.8519 92.393 38.7596 92.8574 36.6603 90.9039C34.9823 89.3417 34.0998 87.439 33.9667 85.1549C33.1837 85.0469 32.9181 84.925 32.8197 84.0442C32.7503 83.313 32.8777 82.5486 32.8605 81.8192C32.6508 72.8075 34.722 63.5149 38.167 55.2198C39.937 51.286 42.0415 47.2771 45.6622 44.7449C46.564 44.1142 45.2532 41.774 48.2912 42.7C48.6814 42.0728 49.8295 40.0549 49.4023 39.3901L48.8887 39.4347C48.8388 39.3977 48.7889 39.3607 48.739 39.3237C48.3524 37.6203 47.4475 35.5058 46.9194 33.8953C46.5808 32.8626 46.6865 32.4035 46.4324 31.8975L46.1653 31.9166C45.9487 31.7884 45.9233 31.6839 45.8777 31.4254C45.0874 26.9459 47.3301 21.0734 52.1542 20.0614C51.7289 19.8728 51.1696 19.7085 51.002 19.3124C51.544 18.5983 52.0343 19.2725 52.6009 19.2445C53.0075 18.0277 52.3182 17.9435 53.5069 16.9609ZM79.5856 58.2029C79.8348 58.0157 80.0989 57.8047 80.3657 57.6505C80.2254 57.4387 79.9031 56.8685 79.725 56.7917L78.919 57.3143C79.0898 57.5536 79.3935 58.0124 79.5856 58.2029Z" fill="black"/>
<path d="M24.7117 53.8253C28.283 53.5153 28.0123 56.3518 28.4081 59.0951C28.6753 61.0157 28.9669 62.9328 29.2827 64.8459C30.7581 73.8847 32.0219 83.1974 33.5833 92.1879C35.6482 92.2774 38.2538 92.2091 40.3492 92.21L53.2822 92.2082C55.6111 92.2072 57.9473 92.1731 60.2732 92.2377C61.8661 92.282 62.5422 93.1194 62.542 94.6926C62.5417 97.333 60.862 97.3063 58.8273 97.3026L61.5619 115.276C61.8582 117.21 62.3468 119.937 62.499 121.933C62.5087 122.06 62.4235 122.079 62.298 122.177C61.5618 122.267 59.4537 122.291 58.7711 122.113C58.5727 121.927 58.5714 121.895 58.5164 121.56C58.1839 119.53 57.8728 117.454 57.556 115.426L55.5411 102.416C55.3642 100.832 55.0101 98.8859 54.7646 97.2813L34.974 97.2943C33.8916 103.399 33.1864 109.82 32.1071 115.953C31.9354 116.928 31.3412 121.369 31.0045 122.085C30.5138 122.307 27.6963 122.317 27.2745 122.053C27.1281 121.407 28.1643 115.437 28.3279 114.371C29.2476 108.578 30.1223 102.777 30.9517 96.9711C28.4515 95.674 28.8157 93.557 28.3227 91.1529C28.2306 90.7033 28.1763 90.2278 28.1042 89.7727L26.3054 78.2932L24.0377 63.9488C23.6432 61.4544 23.2105 58.9564 22.8946 56.4522C22.7168 55.0428 23.486 54.2893 24.7117 53.8253Z" fill="#FBC44C"/>
<path d="M96.0527 72.4989C96.1241 72.4957 96.1553 72.5148 96.1719 72.538C96.1916 72.5655 96.2012 72.612 96.1992 72.6825C96.1973 72.7515 96.1847 72.8337 96.1709 72.9247L96.1699 72.9296C96.1539 73.0354 96.1372 73.1523 96.1357 73.2655C96.1351 73.3191 96.1379 73.3727 96.1465 73.4247C96.1525 73.4613 96.1622 73.5269 96.1758 73.5897C96.1826 73.6211 96.1908 73.653 96.2002 73.6815C96.2028 73.6893 96.2079 73.6962 96.2109 73.704C96.2083 73.7048 96.206 73.707 96.2031 73.7079C96.1795 73.7151 96.1484 73.7216 96.1113 73.7284C96.0372 73.7419 95.9394 73.7535 95.8203 73.7635C94.6677 73.8605 91.6383 73.7897 89.5283 73.7323C89.3097 73.7264 89.1009 73.7201 88.9053 73.7147H88.9043C88.3061 73.6981 87.829 73.6854 87.5645 73.6815C87.5797 73.6626 87.5972 73.6431 87.6133 73.6219C87.6606 73.5595 87.7095 73.4905 87.7402 73.4442C87.7858 73.3755 87.8332 73.297 87.8809 73.2157C87.9294 73.1329 87.9791 73.0456 88.0273 72.9618C88.0788 72.8725 88.129 72.7864 88.1768 72.7108C88.2359 72.6173 88.2895 72.5438 88.334 72.4989L88.4697 72.5018L88.9014 72.5096H88.9023L89.4912 72.5135H90.0195L90.5469 72.5116H90.5479C90.6885 72.5088 90.8402 72.5068 91 72.5057C91.1441 72.5048 91.2956 72.5046 91.4521 72.5048C91.6209 72.5049 91.7961 72.5057 91.9756 72.5067C92.1005 72.5074 92.2279 72.5087 92.3564 72.5096L92.8223 72.5135L93.2607 72.5165L94.0146 72.5223C94.1416 72.5229 94.2675 72.5232 94.3916 72.5233C94.5194 72.5235 94.6461 72.5228 94.7695 72.5223C94.8981 72.5219 95.0241 72.5216 95.1465 72.5204C95.2763 72.519 95.4023 72.5169 95.5234 72.5145C95.6279 72.5124 95.7294 72.5097 95.8262 72.5067C95.9045 72.5043 95.9801 72.502 96.0527 72.4989Z" stroke="black" stroke-width="0.1"/>
</g>
</svg>
