<svg preserveAspectRatio="none" width="100%" height="100%" overflow="visible" style="display: block;" viewBox="0 0 51.5393 58" fill="none" xmlns="http://www.w3.org/2000/svg">
<g id="Group 2">
<g id="Group 1">
<path id="Vector" d="M16.7518 0C17.0876 0.247804 16.6651 0.557999 16.9615 1.05411C17.0439 1.02998 17.0113 1.04957 17.0736 0.994293C18.5924 -0.352599 21.0332 -0.116003 22.7804 0.58758C24.144 1.13685 25.4131 1.9321 26.9068 1.88859C27.0451 1.88455 27.0643 1.8686 27.2081 1.90464L27.2223 1.98344C26.9502 2.42271 26.6362 2.50191 26.1582 2.63124C27.1703 3.26087 28.4272 4.38066 29.3596 5.15597C29.6927 5.433 30.0905 6.27162 30.0738 6.71624L30.0183 6.76455C29.8533 6.70604 29.3883 6.23573 29.0067 6.00827C29.5373 6.91558 29.8083 7.75021 29.6599 8.82053C29.6221 9.09165 29.4161 9.80064 29.2086 9.95031C29.1955 9.67757 29.2157 9.28549 29.0314 9.1017L28.9769 9.1227C28.9179 9.56136 28.8321 10.5065 28.3429 10.6825C28.1996 10.5245 28.3606 9.84097 28.3434 9.44031L28.3389 9.35263C28.2086 9.56141 28.1269 9.76808 27.9133 9.8284C27.7589 9.75515 27.6993 9.61295 27.6044 9.46141C27.4207 9.99569 27.1405 10.6141 26.7609 11.0387C26.5035 11.327 26.2813 11.4991 26.0587 11.8266C26.0537 12.0122 26.0774 11.9777 26.2117 12.1684L26.1279 12.233C25.9881 12.166 25.9684 12.1507 25.8129 12.1161C25.1339 12.5595 25.9674 13.9435 25.7028 14.4342C25.5277 14.7584 25.0542 14.6478 24.7856 14.7272C24.4202 14.8351 24.6085 15.2153 24.4015 15.5618C24.1698 15.7583 24.0148 15.5779 23.8689 15.7425C23.8891 15.8921 23.9088 15.9269 23.8528 16.0658C23.7488 16.1617 23.6776 16.1819 23.5348 16.1933C22.7655 16.2545 23.0037 17.0847 22.1986 17.2541C20.8401 17.54 19.9795 16.0345 18.7736 15.9709C18.3987 15.9512 17.9954 16.5333 17.7965 16.8081C18.0973 17.1659 18.5212 17.575 18.7693 17.9688C18.8922 18.1639 18.9686 18.576 19.1201 18.8748L20.7075 21.9897C21.0165 22.5884 21.4318 23.3236 21.6819 23.9314C21.4243 24.1544 21.2476 24.2661 20.9623 24.4512C21.406 25.2708 21.8756 26.0761 22.3704 26.8659C24.7942 27.0794 28.3015 28.0177 30.7896 27.7578C31.1637 27.7188 32.3913 26.7879 33.4166 26.5093C32.6427 25.3281 31.8588 24.1534 31.0648 22.9854C30.7947 22.5813 30.515 22.1861 30.2404 21.7863C29.9547 21.3698 30.4105 21.0392 30.83 21.0711C30.9623 21.1277 31.033 21.213 31.1127 21.3313C32.2293 22.9837 33.2742 24.7269 34.4403 26.3434C35.0213 26.4548 35.7608 26.7952 36.1929 27.213C36.3888 27.3824 36.2818 27.6836 36.3489 27.8799C36.565 28.5146 36.731 28.5138 36.357 29.137C36.5801 29.4831 36.7805 30.001 36.9673 30.3942C36.9795 30.3939 36.9919 30.3937 37.0044 30.3934C37.0814 30.3919 37.1642 30.3909 37.2517 30.3903C37.3306 30.3898 37.4134 30.3896 37.499 30.3897C37.5914 30.3898 37.6873 30.3902 37.7855 30.3907C37.8539 30.3911 37.9234 30.3916 37.9937 30.3921C38.0776 30.3928 38.1628 30.3935 38.2484 30.3942C38.3281 30.3949 38.4082 30.3956 38.4883 30.3962C38.5571 30.3968 38.6259 30.3973 38.6944 30.3978C38.7635 30.3983 38.8324 30.3987 38.9005 30.399C38.97 30.3993 39.0388 30.3995 39.1066 30.3996C39.1765 30.3997 39.2453 30.3996 39.3127 30.3993C39.3831 30.3991 39.4519 30.3986 39.5189 30.398C39.5899 30.3972 39.6587 30.3962 39.725 30.3949C39.782 30.3938 39.837 30.3924 39.8898 30.3907C39.9326 30.3894 39.9739 30.3879 40.0135 30.3862C40.1028 30.3822 40.1243 30.4353 40.1221 30.515C40.1209 30.5555 40.1137 30.603 40.1061 30.6533C40.0973 30.7114 40.088 30.7735 40.0873 30.8332C40.0869 30.8614 40.0885 30.8891 40.0928 30.9156C40.0996 30.9568 40.1132 30.9952 40.1372 31.0284C39.9019 31.1894 35.9204 31.0304 35.3556 31.0279C35.3829 31.0053 35.4139 30.9652 35.4468 30.9156C35.4713 30.8787 35.4969 30.8364 35.5229 30.792C35.5494 30.7468 35.5763 30.6994 35.6029 30.6533C35.6311 30.6044 35.6588 30.5569 35.6853 30.515C35.721 30.4586 35.7543 30.4123 35.783 30.3862L35.8689 30.3877L36.1052 30.3921L36.4273 30.398L36.7158 30.4034L36.7962 30.4048C36.4837 30.1908 36.1743 29.9722 35.8689 29.7486C35.6175 30.0803 35.5347 30.1908 35.1632 30.4159C34.9219 30.5618 34.7124 30.7188 34.4166 30.7234C33.6558 30.7355 32.8956 30.7476 32.1369 30.7082C31.5524 30.6653 31.0309 30.524 30.4206 30.5436C28.1188 30.6173 25.822 30.7557 23.5176 30.739C22.7577 30.7244 21.9403 30.7814 21.1929 30.6486C20.2823 30.4866 19.5266 29.5235 19.0013 28.8231C18.4593 28.1004 17.9597 27.2942 17.4766 26.5297C17.3037 26.6373 17.0677 26.751 16.8829 26.8466C16.6684 26.5116 16.0435 25.317 15.7744 25.1948C15.6332 25.5111 15.7744 26.9694 15.7744 27.2579C15.7744 27.7526 15.7744 28.0823 15.7744 28.206C15.7744 29.4838 16.5311 30.8829 16.4613 32.21C16.9091 33.0934 17.3742 33.2635 16.6261 34.1822L16.852 34.6224C17.4466 34.7233 18.1792 34.9248 18.7757 35.0717L22.0932 35.9015C22.093 35.1464 22.0983 34.3917 22.1091 33.6365C21.5303 33.6411 19.6715 33.7178 19.2432 33.5406C18.8657 33.1459 18.9182 31.6744 19.1599 31.2105C19.315 30.9127 20.5523 31.0399 20.8923 31.0303C21.334 31.0182 21.8391 31.0303 22.2893 31.0303L29.1198 31.0272L35.82 31.0279L36.1052 31.0279L36.4273 31.028L36.7158 31.028L37.0044 31.0281L37.2517 31.0281L37.499 31.0281L37.7855 31.0281L37.9937 31.0282L38.2484 31.0282L38.4883 31.0282L38.6944 31.0282L38.9005 31.0283L39.1066 31.0283L39.3127 31.0283L39.5189 31.0283L39.725 31.0283L39.8898 31.0284L43.7987 31.0288C46.1121 31.0293 48.4291 31.0313 50.7426 31.0247C50.9364 31.0242 51.2166 31.057 51.3604 31.1994C51.523 31.3594 51.5174 31.5553 51.5189 31.7637C51.5311 32.2832 51.6774 33.6623 50.9627 33.6597C50.2186 33.6572 49.3983 33.6305 48.6366 33.6481L48.6376 51.0817L48.6371 55.379C48.6366 55.9267 48.6724 57.4512 48.5619 57.8808C48.2444 58.004 46.157 58.0529 45.9501 57.8924C45.7678 57.431 45.8547 54.6839 45.8526 53.9484L45.8426 45.8324L45.8395 39.4871C45.838 38.367 45.7996 36.9793 45.8592 35.8758L24.8851 35.8798L24.8795 36.6835C26.6483 37.1817 29.2006 37.6421 30.0335 39.4775C30.7291 41.0091 30.2117 43.1575 29.985 44.7783L29.1354 50.7304C29.0668 51.2054 28.7967 53.3674 28.7084 53.6163C28.5812 53.7687 28.5569 53.7692 28.3666 53.853L28.3136 53.8758C28.4101 54.0378 28.5923 54.1342 28.7538 54.2498C29.6816 54.9136 30.6347 55.2109 31.6998 55.5461C32.1829 55.7117 32.6644 56.0363 32.8613 56.5244C33.0133 56.9015 33.1914 57.8641 32.5918 57.9353C31.9608 58.0105 31.2874 57.9853 30.6503 57.9843L27.0784 57.9757L24.2788 57.9853C23.7761 57.9878 22.6808 58.0706 22.2346 57.8142C22.1521 57.7667 22.1021 57.2604 22.1014 57.1206C22.0936 55.4775 22.0992 53.8328 22.0994 52.1887L22.0973 47.2347L22.0951 42.2806C21.9144 42.2655 21.7128 42.2357 21.5308 42.214C20.8944 40.9091 19.7091 41.269 18.4354 41.27L12.2138 41.2685C11.9 41.2685 11.5783 41.2741 11.2695 41.269C9.83248 41.2438 8.68847 41.4977 7.54067 40.4295C6.62321 39.5754 6.14068 38.5351 6.06789 37.2862C5.63977 37.2271 5.49454 37.1605 5.44073 36.6789C5.40282 36.2791 5.47248 35.8612 5.46304 35.4624C5.34841 30.5351 6.48085 25.4542 8.36449 20.9187C9.33223 18.7678 10.4829 16.5759 12.4626 15.1913C12.9557 14.8465 12.239 13.567 13.9 14.0733C14.1134 13.7303 14.7411 12.627 14.5076 12.2635L14.2267 12.2879C14.1994 12.2677 14.1722 12.2475 14.1449 12.2272C13.9335 11.2958 13.4387 10.1397 13.15 9.25914C12.9649 8.69453 13.0227 8.4435 12.8837 8.16682L12.7377 8.17727C12.6192 8.10715 12.6054 8.05001 12.5804 7.90872C12.1483 5.45945 13.3746 2.24856 16.0122 1.69525C15.7797 1.59212 15.4738 1.50227 15.3822 1.28571C15.6786 0.895253 15.9466 1.2639 16.2565 1.24856C16.4788 0.58329 16.1018 0.537253 16.7518 0ZM31.0107 22.5497C31.147 22.4474 31.2914 22.332 31.4373 22.2477C31.3606 22.1319 31.1844 21.8201 31.087 21.7781L30.6463 22.0639C30.7397 22.1948 30.9057 22.4456 31.0107 22.5497Z" fill="var(--fill-0, #0F1F3D)"/>
<path id="Vector_2" d="M1.00745 20.1562C2.96014 19.9867 2.81208 21.5376 3.02854 23.0376C3.17463 24.0877 3.33404 25.1359 3.50673 26.1819C4.31344 31.124 5.0044 36.2159 5.85815 41.1316C6.98717 41.1806 8.4118 41.1432 9.55753 41.1437L16.6288 41.1427C17.9022 41.1422 19.1796 41.1235 20.4512 41.1589C21.3222 41.1831 21.6919 41.6409 21.6918 42.5011C21.6916 43.9448 20.7732 43.9302 19.6607 43.9282L21.1559 53.7555C21.3179 54.813 21.5851 56.3037 21.6683 57.3951C21.6736 57.4647 21.627 57.4753 21.5584 57.5288C21.1558 57.5778 20.0032 57.5909 19.63 57.4935C19.5215 57.392 19.5208 57.3744 19.4907 57.1911C19.3089 56.0816 19.1388 54.9463 18.9656 53.8373L17.8639 46.7242C17.7672 45.858 17.5736 44.7939 17.4394 43.9165L6.61852 43.9236C6.0267 47.2613 5.64114 50.7722 5.05099 54.1255C4.95715 54.6586 4.63222 57.0866 4.44812 57.4784C4.17982 57.5995 2.63935 57.6051 2.40871 57.4607C2.32865 57.1078 2.89522 53.8433 2.98467 53.2608C3.48755 50.0932 3.96579 46.9216 4.41929 43.7469C3.05227 43.0377 3.25136 41.8802 2.98185 40.5657C2.93147 40.3199 2.90179 40.0599 2.86236 39.8111L1.87882 33.5344L0.638904 25.6914C0.423206 24.3275 0.186661 22.9617 0.0139211 21.5925C-0.0833019 20.8219 0.337291 20.4099 1.00745 20.1562Z" fill="var(--fill-0, #FBC44C)"/>
</g>
<path id="Vector_3" d="M39.0559 30.9186V31.0416H38.9494V30.9186H39.0559ZM38.8498 30.9186V31.0416H38.7434V30.9186H38.8498ZM38.6438 30.9186V31.0416H38.5373V30.9186H38.6438ZM38.4377 30.9186V31.0416H38.2981V30.9186H38.4377ZM38.1975 30.9186V31.0397L38.0432 31.0358V30.9186H38.1975ZM39.2619 30.9186V31.0358L39.1565 31.0397V30.9186H39.2619ZM39.8391 30.9186V31.0348H39.7746V30.9186H39.8391ZM39.6741 30.9186V31.0348H39.5686V30.9186H39.6741ZM39.468 30.9186V31.0348H39.3625V30.9186H39.468ZM37.9426 30.9186V31.0348H37.8352V30.9186H37.9426ZM37.7346 30.9186V31.0328L37.5481 31.028V30.9186H37.7346ZM40.05 30.9186C40.0526 30.9338 40.0552 30.9508 40.0588 30.9674C40.0618 30.9814 40.0655 30.9957 40.0696 31.0094C40.0615 31.0113 40.0525 31.0144 40.0422 31.0162C40.0145 31.0213 39.9801 31.0247 39.9397 31.0289V30.9186H40.05ZM37.4485 30.9186V31.025L37.301 31.0192V30.9186H37.4485ZM36.3918 30.9186L36.3938 31.0162L36.1545 31.0094V30.9186H36.3918ZM36.6985 30.9186L36.7034 31.0094L36.4944 31.0162L36.4924 30.9186H36.6985ZM37.2014 30.9186V31.0153L37.0725 31.0104L37.0705 30.9186H37.2014ZM36.97 30.9186L36.9729 31.0084H36.803L36.7981 30.9186H36.97ZM36.0549 30.9186V31.0045L35.8381 30.9918L35.8479 30.9186H36.0549ZM35.7473 30.9186L35.7366 30.9987C35.6078 30.9952 35.4997 30.9924 35.4182 30.9908C35.4367 30.9664 35.4557 30.9406 35.4709 30.9186H35.7473ZM37.9426 30.816V30.818H37.8352V30.8151L37.9426 30.816ZM37.7346 30.8141V30.818H37.5481V30.8121L37.7346 30.8141ZM37.4485 30.8112V30.818H37.301V30.8102L37.4485 30.8112ZM37.2014 30.8092V30.818H37.0676L37.0666 30.8082L37.2014 30.8092ZM36.966 30.8072L36.967 30.818H36.7922L36.7912 30.8053L36.966 30.8072ZM36.6907 30.8043L36.6926 30.818H36.4895L36.4885 30.8024L36.6907 30.8043ZM36.3889 30.8014L36.3899 30.818H36.1545V30.7994L36.3889 30.8014ZM36.0549 30.7985V30.818H35.8596L35.8616 30.7975L36.0549 30.7985ZM35.7619 30.7965L35.759 30.818H35.5364C35.541 30.8103 35.5454 30.8024 35.55 30.7946L35.7619 30.7965ZM40.05 30.6559C40.0465 30.6817 40.0433 30.7082 40.0412 30.735L39.9397 30.734V30.6559H40.05ZM39.8391 30.6559V30.733L39.7746 30.7321V30.6559H39.8391ZM39.6741 30.6559V30.7311H39.5686V30.6559H39.6741ZM39.468 30.6559V30.7301L39.3625 30.7291V30.6559H39.468ZM39.2619 30.6559V30.7281L39.1565 30.7272V30.6559H39.2619ZM39.0559 30.6559V30.7262L38.9494 30.7252V30.6559H39.0559ZM38.8498 30.6559V30.7242L38.7434 30.7233V30.6559H38.8498ZM38.6438 30.6559V30.7223L38.5373 30.7213V30.6559H38.6438ZM38.4377 30.6559V30.7203L38.2981 30.7194V30.6559H38.4377ZM38.1975 30.6559V30.7184L38.0432 30.7164V30.6559H38.1975ZM37.9426 30.6559V30.7155L37.8352 30.7145V30.6559H37.9426ZM37.7346 30.6559V30.7135L37.5481 30.7125V30.6559H37.7346ZM37.4485 30.6559V30.7115L37.301 30.7106V30.6559H37.4485ZM37.2014 30.6559V30.7096L37.0637 30.7076L37.0627 30.6559H37.2014ZM36.9621 30.6559L36.9631 30.7067L36.7864 30.7057L36.7834 30.6559H36.9621ZM36.6828 30.6559L36.6848 30.7047L36.4856 30.7028L36.4846 30.6559H36.6828ZM36.385 30.6559L36.386 30.7018L36.1545 30.6998V30.6559H36.385ZM36.0549 30.6559V30.6989L35.8743 30.6969L35.8791 30.6559H36.0549ZM35.7795 30.6559L35.7737 30.6959L35.6077 30.6949C35.6152 30.6817 35.6236 30.669 35.6311 30.6559H35.7795ZM40.0657 30.5172C40.0642 30.5296 40.0637 30.5427 40.0618 30.5563H39.9397V30.5172H40.0657ZM39.8391 30.5172V30.5563H39.7746V30.5172H39.8391ZM39.6741 30.5172V30.5563H39.5686V30.5172H39.6741ZM39.468 30.5172V30.5563H39.3625V30.5172H39.468ZM39.2619 30.5172V30.5563H39.1565V30.5172H39.2619ZM39.0559 30.5172V30.5563H38.9494V30.5172H39.0559ZM38.8498 30.5172V30.5563H38.7434V30.5172H38.8498ZM38.6438 30.5172V30.5563H38.5373V30.5172H38.6438ZM38.4377 30.5172V30.5563H38.2981V30.5172H38.4377ZM38.1975 30.5172V30.5563H38.0432V30.5172H38.1975ZM37.9426 30.5172V30.5563H37.8352V30.5172H37.9426ZM37.7346 30.5172V30.5563H37.5481V30.5172H37.7346ZM37.4485 30.5172V30.5563H37.301V30.5172H37.4485ZM37.2014 30.5172V30.5563H37.0598L37.0578 30.5172H37.2014ZM36.9582 30.5172L36.9602 30.5563H36.7776L36.7746 30.5172H36.9582ZM36.675 30.5172L36.677 30.5563H36.4827L36.4807 30.5172H36.675ZM36.3811 30.5172L36.383 30.5563H36.1545V30.5172H36.3811ZM36.0549 30.5172V30.5563H35.8918L35.8967 30.5172H36.0549ZM35.7961 30.5172L35.7912 30.5563H35.6897C35.6976 30.5429 35.7054 30.5298 35.7131 30.5172H35.7961ZM40.0149 30.3883C40.0492 30.3868 40.0577 30.3967 40.0608 30.401C40.0633 30.4046 40.0648 30.4101 40.0666 30.4176H39.9397V30.3912C39.9653 30.3903 39.9904 30.3894 40.0149 30.3883ZM39.8391 30.4176H39.7746V30.3951C39.7964 30.3946 39.8179 30.3947 39.8391 30.3942V30.4176ZM39.6741 30.4176H39.5686V30.399C39.6044 30.3986 39.6395 30.3977 39.6741 30.3971V30.4176ZM39.468 30.4176H39.3625V30.401C39.3981 30.4008 39.4333 30.4003 39.468 30.4V30.4176ZM39.2619 30.402V30.4176H39.1565V30.402C39.1919 30.402 39.2271 30.4021 39.2619 30.402ZM39.0559 30.402V30.4176H38.9494V30.402C38.9851 30.4021 39.0206 30.4019 39.0559 30.402ZM38.8498 30.401V30.4176H38.7434V30.4L38.8498 30.401ZM38.6438 30.399V30.4176H38.5373V30.399H38.6438ZM38.4377 30.3981V30.4176H38.2981V30.3971L38.4377 30.3981ZM38.1975 30.3961V30.4176H38.0432V30.3951L38.1975 30.3961ZM37.9426 30.3942V30.4176H37.8352V30.3932L37.9426 30.3942ZM37.7346 30.3922V30.4176H37.5481V30.3922C37.609 30.3923 37.6712 30.3919 37.7346 30.3922ZM37.4485 30.4176H37.301V30.3922C37.3489 30.392 37.3981 30.3922 37.4485 30.3922V30.4176ZM37.2014 30.4176H37.0559L37.0549 30.3951C37.1019 30.3944 37.1508 30.3936 37.2014 30.3932V30.4176ZM36.9553 30.4176H36.7688L36.7678 30.3961H36.9543L36.9553 30.4176ZM36.6682 30.3971L36.6692 30.4176H36.4787L36.4778 30.3971H36.6682ZM36.3772 30.3961L36.3782 30.4176H36.1545V30.3942L36.3772 30.3961ZM36.0549 30.3932V30.4176H35.9094L35.9123 30.3903L36.0549 30.3932ZM35.8118 30.3883L35.8088 30.4176H35.7795C35.7882 30.4062 35.7964 30.3965 35.8039 30.3883H35.8118Z" stroke="var(--stroke-0, #0F1F3D)" stroke-width="0.1"/>
</g>
</svg>
