<svg preserveAspectRatio="none" width="100%" height="100%" overflow="visible" style="display: block;" viewBox="0 0 66.9691 58" fill="none" xmlns="http://www.w3.org/2000/svg">
<g id="Vector">
<path d="M0 14.4817V0.499368H5.23593C6.36839 0.499368 7.30766 0.692458 8.05374 1.07864C8.79983 1.46481 9.35273 1.98416 9.71246 2.63667C10.0722 3.28917 10.252 4.0349 10.252 4.87384C10.252 5.64619 10.0788 6.35863 9.73244 7.01113C9.38604 7.66364 8.8398 8.1963 8.09371 8.60912C7.34763 9.00861 6.39503 9.20836 5.23593 9.20836H2.6979V14.4817H0ZM2.6979 7.03111H5.07606C5.94205 7.03111 6.56157 6.83802 6.93461 6.45184C7.32098 6.05235 7.51416 5.52635 7.51416 4.87384C7.51416 4.18138 7.32098 3.64872 6.93461 3.27586C6.56157 2.88968 5.94205 2.69659 5.07606 2.69659H2.6979V7.03111Z" fill="var(--fill-0, #F8FAFC)"/>
<path d="M16.4779 14.7214C15.4653 14.7214 14.566 14.5083 13.78 14.0822C13.0072 13.6428 12.401 13.0368 11.9614 12.2645C11.5351 11.4788 11.3219 10.5733 11.3219 9.54793C11.3219 8.49592 11.5351 7.57043 11.9614 6.77144C12.401 5.95913 13.0072 5.3266 13.78 4.87384C14.5527 4.40776 15.452 4.17472 16.4779 4.17472C17.4771 4.17472 18.3498 4.39444 19.0958 4.83389C19.8419 5.27333 20.4215 5.86592 20.8345 6.61164C21.2475 7.35736 21.454 8.20296 21.454 9.14843C21.454 9.2816 21.454 9.43474 21.454 9.60785C21.454 9.76765 21.4407 9.93411 21.414 10.1072H13.2404V8.46929H18.7361C18.6962 7.81678 18.463 7.3041 18.0367 6.93124C17.6237 6.55837 17.1041 6.37194 16.4779 6.37194C16.0249 6.37194 15.6052 6.47848 15.2189 6.69154C14.8325 6.89129 14.5261 7.20422 14.2996 7.63035C14.0864 8.05648 13.9798 8.5958 13.9798 9.24831V9.82757C13.9798 10.3736 14.0797 10.8529 14.2796 11.2658C14.4928 11.6653 14.7859 11.9782 15.1589 12.2046C15.5319 12.4176 15.9649 12.5242 16.4579 12.5242C16.9508 12.5242 17.3572 12.4176 17.6769 12.2046C18.01 11.9915 18.2565 11.7185 18.4164 11.3856H21.1742C20.9877 12.0115 20.6746 12.5774 20.235 13.0835C19.7953 13.5895 19.2557 13.989 18.6162 14.2819C17.9767 14.5749 17.2639 14.7214 16.4779 14.7214Z" fill="var(--fill-0, #F8FAFC)"/>
<path d="M23.5969 14.4817V4.41442H25.9751L26.1749 6.05235C26.4814 5.49305 26.9144 5.04029 27.4739 4.69407C28.0468 4.34784 28.7263 4.17472 29.5123 4.17472C30.3517 4.17472 31.0578 4.34784 31.6307 4.69407C32.2036 5.04029 32.6366 5.54632 32.9297 6.21215C33.2361 6.87797 33.3893 7.69693 33.3893 8.66904V14.4817H30.7114V8.92871C30.7114 8.12972 30.5382 7.51716 30.1918 7.09103C29.8587 6.66491 29.3391 6.45184 28.633 6.45184C28.18 6.45184 27.7737 6.55837 27.414 6.77144C27.0676 6.9845 26.7944 7.29078 26.5946 7.69028C26.3948 8.07646 26.2948 8.54919 26.2948 9.10848V14.4817H23.5969Z" fill="var(--fill-0, #F8FAFC)"/>
<path d="M40.7407 14.7214C39.7282 14.7214 38.8288 14.495 38.0428 14.0422C37.2567 13.5895 36.6439 12.9703 36.2042 12.1846C35.7646 11.3989 35.5447 10.5001 35.5447 9.488C35.5447 8.44932 35.7646 7.53714 36.2042 6.75146C36.6439 5.95247 37.2567 5.3266 38.0428 4.87384C38.8288 4.40776 39.7282 4.17472 40.7407 4.17472C42.033 4.17472 43.1188 4.51429 43.9982 5.19343C44.8775 5.87257 45.4371 6.80473 45.6769 7.9899H42.8191C42.6992 7.52382 42.446 7.15762 42.0597 6.89129C41.6866 6.62496 41.2403 6.49179 40.7207 6.49179C40.2544 6.49179 39.8347 6.61164 39.4617 6.85134C39.102 7.07772 38.8155 7.41729 38.6024 7.87005C38.4025 8.30949 38.3026 8.8355 38.3026 9.44805C38.3026 9.91413 38.3625 10.3336 38.4824 10.7065C38.6024 11.066 38.7689 11.3789 38.9821 11.6453C39.1952 11.8983 39.4484 12.0914 39.7415 12.2245C40.0479 12.3577 40.3743 12.4243 40.7207 12.4243C41.0671 12.4243 41.3802 12.3644 41.66 12.2445C41.9531 12.1247 42.1996 11.9582 42.3994 11.7451C42.5993 11.5188 42.7391 11.2458 42.8191 10.9262H45.6769C45.4371 12.0847 44.8708 13.0102 43.9782 13.7027C43.0989 14.3818 42.0197 14.7214 40.7407 14.7214Z" fill="var(--fill-0, #F8FAFC)"/>
<path d="M47.9968 14.4817V4.41442H50.6947V14.4817H47.9968ZM49.3558 3.03616C48.8762 3.03616 48.4765 2.89634 48.1567 2.61669C47.8503 2.32373 47.6971 1.95752 47.6971 1.51808C47.6971 1.07864 47.8503 0.719091 48.1567 0.439445C48.4765 0.146482 48.8762 0 49.3558 0C49.8487 0 50.2484 0.146482 50.5548 0.439445C50.8746 0.719091 51.0345 1.07864 51.0345 1.51808C51.0345 1.95752 50.8746 2.32373 50.5548 2.61669C50.2484 2.89634 49.8487 3.03616 49.3558 3.03616Z" fill="var(--fill-0, #F8FAFC)"/>
<path d="M53.3543 14.4817V0.0998736H56.0522V14.4817H53.3543Z" fill="var(--fill-0, #F8FAFC)"/>
<path d="M62.7324 14.7214C61.8131 14.7214 61.0137 14.5749 60.3342 14.2819C59.6548 13.989 59.1218 13.5828 58.7355 13.0635C58.3491 12.5441 58.1293 11.9582 58.076 11.3057H60.7539C60.8205 11.5587 60.9338 11.7918 61.0936 12.0048C61.2535 12.2046 61.4667 12.3644 61.7331 12.4842C61.9996 12.6041 62.3193 12.664 62.6924 12.664C63.0521 12.664 63.3452 12.6174 63.5717 12.5242C63.7982 12.4176 63.9647 12.2778 64.0713 12.1047C64.1912 11.9316 64.2512 11.7518 64.2512 11.5654C64.2512 11.2857 64.1712 11.0727 64.0114 10.9262C63.8515 10.7664 63.6183 10.6399 63.3119 10.5467C63.0055 10.4534 62.6324 10.3602 62.1928 10.267C61.7132 10.1738 61.2402 10.0606 60.7739 9.92745C60.3209 9.78097 59.9146 9.60119 59.5548 9.38813C59.1951 9.17507 58.9087 8.90208 58.6955 8.56917C58.4823 8.23625 58.3757 7.82344 58.3757 7.33073C58.3757 6.73149 58.5356 6.19883 58.8554 5.73275C59.1751 5.25336 59.6414 4.87384 60.2543 4.59419C60.8671 4.31454 61.6066 4.17472 62.4726 4.17472C63.685 4.17472 64.6442 4.44771 65.3503 4.99369C66.0564 5.53966 66.4761 6.29204 66.6094 7.25083H64.0713C63.9914 6.94455 63.8115 6.70486 63.5317 6.53174C63.2653 6.34531 62.9056 6.25209 62.4526 6.25209C61.973 6.25209 61.6066 6.33865 61.3534 6.51177C61.1003 6.68488 60.9737 6.91126 60.9737 7.19091C60.9737 7.37734 61.0537 7.5438 61.2135 7.69028C61.3867 7.83676 61.6266 7.96326 61.933 8.0698C62.2394 8.16301 62.6125 8.25623 63.0521 8.34944C63.8248 8.50924 64.5043 8.69567 65.0905 8.90874C65.6767 9.10848 66.1364 9.40145 66.4695 9.78762C66.8025 10.1605 66.9691 10.7065 66.9691 11.4256C66.9691 12.0647 66.7959 12.6374 66.4495 13.1434C66.1031 13.6361 65.6101 14.0223 64.9706 14.3019C64.3444 14.5816 63.5984 14.7214 62.7324 14.7214Z" fill="var(--fill-0, #F8FAFC)"/>
<path d="M0 36.121V22.1387H5.73554C6.70812 22.1387 7.52749 22.2918 8.19364 22.5981C8.85979 22.9044 9.3594 23.3305 9.69247 23.8765C10.0389 24.4091 10.2121 25.0284 10.2121 25.7341C10.2121 26.4399 10.0589 27.0325 9.75243 27.5119C9.446 27.9913 9.03965 28.3641 8.53337 28.6305C8.04042 28.8835 7.49418 29.03 6.89465 29.0699L7.2144 28.8502C7.8539 28.8768 8.42013 29.0499 8.91308 29.3695C9.41935 29.6758 9.81238 30.0886 10.0922 30.608C10.3853 31.1273 10.5318 31.6933 10.5318 32.3058C10.5318 33.0515 10.352 33.7107 9.99224 34.2833C9.63252 34.8559 9.11292 35.3087 8.43345 35.6416C7.75398 35.9612 6.92129 36.121 5.93539 36.121H0ZM2.6979 33.9238H5.49573C6.2285 33.9238 6.79472 33.7573 7.19441 33.4244C7.5941 33.0915 7.79395 32.6121 7.79395 31.9862C7.79395 31.3603 7.58744 30.8743 7.17443 30.5281C6.76142 30.1685 6.18853 29.9888 5.45576 29.9888H2.6979V33.9238ZM2.6979 27.9713H5.29589C6.00201 27.9713 6.53492 27.8115 6.89465 27.4919C7.26769 27.1723 7.45421 26.7195 7.45421 26.1336C7.45421 25.561 7.26769 25.1149 6.89465 24.7953C6.53492 24.4624 5.99534 24.2959 5.2759 24.2959H2.6979V27.9713Z" fill="var(--fill-0, #F8FAFC)"/>
<path d="M17.4537 36.3607C16.4411 36.3607 15.5418 36.1476 14.7558 35.7215C13.983 35.2821 13.3768 34.6762 12.9372 33.9038C12.5109 33.1181 12.2977 32.2126 12.2977 31.1872C12.2977 30.1352 12.5109 29.2097 12.9372 28.4107C13.3768 27.5984 13.983 26.9659 14.7558 26.5131C15.5285 26.0471 16.4278 25.814 17.4537 25.814C18.4529 25.814 19.3256 26.0337 20.0716 26.4732C20.8177 26.9126 21.3973 27.5052 21.8103 28.2509C22.2233 28.9967 22.4298 29.8423 22.4298 30.7877C22.4298 30.9209 22.4298 31.074 22.4298 31.2472C22.4298 31.407 22.4165 31.5734 22.3898 31.7465H14.2162V30.1086H19.7119C19.672 29.4561 19.4388 28.9434 19.0125 28.5705C18.5995 28.1977 18.0799 28.0112 17.4537 28.0112C17.0007 28.0112 16.581 28.1178 16.1947 28.3308C15.8083 28.5306 15.5019 28.8435 15.2754 29.2697C15.0622 29.6958 14.9556 30.2351 14.9556 30.8876V31.4669C14.9556 32.0129 15.0555 32.4922 15.2554 32.9051C15.4686 33.3046 15.7617 33.6175 16.1347 33.8439C16.5078 34.0569 16.9407 34.1635 17.4337 34.1635C17.9266 34.1635 18.333 34.0569 18.6528 33.8439C18.9858 33.6308 19.2323 33.3578 19.3922 33.0249H22.15C21.9635 33.6508 21.6504 34.2167 21.2108 34.7228C20.7711 35.2288 20.2315 35.6283 19.592 35.9212C18.9525 36.2142 18.2397 36.3607 17.4537 36.3607Z" fill="var(--fill-0, #F8FAFC)"/>
<path d="M25.0324 36.121V25.1549C25.0324 24.3159 25.1723 23.6501 25.4521 23.1574C25.7318 22.6647 26.1315 22.3051 26.6511 22.0788C27.184 21.8524 27.8036 21.7392 28.5097 21.7392H29.7487V24.0363H28.9094C28.483 24.0363 28.1766 24.1228 27.9901 24.2959C27.8169 24.4557 27.7303 24.742 27.7303 25.1549V36.121H25.0324ZM23.6534 28.3109V26.0537H29.9086V28.3109H23.6534Z" fill="var(--fill-0, #F8FAFC)"/>
<path d="M36.2882 36.3607C35.329 36.3607 34.463 36.141 33.6902 35.7015C32.9308 35.2488 32.3246 34.6295 31.8716 33.8439C31.432 33.0449 31.2122 32.1327 31.2122 31.1073C31.2122 30.0553 31.432 29.1365 31.8716 28.3508C32.3246 27.5518 32.9375 26.9326 33.7102 26.4932C34.483 26.0404 35.3489 25.814 36.3082 25.814C37.2808 25.814 38.1468 26.0404 38.9062 26.4932C39.6789 26.9326 40.2851 27.5518 40.7248 28.3508C41.1778 29.1365 41.4042 30.0487 41.4042 31.0874C41.4042 32.126 41.1778 33.0449 40.7248 33.8439C40.2851 34.6295 39.6789 35.2488 38.9062 35.7015C38.1335 36.141 37.2608 36.3607 36.2882 36.3607ZM36.2882 34.0236C36.7412 34.0236 37.1409 33.9171 37.4873 33.7041C37.847 33.491 38.1268 33.1647 38.3266 32.7253C38.5398 32.2858 38.6464 31.7399 38.6464 31.0874C38.6464 30.4349 38.5398 29.8955 38.3266 29.4694C38.1268 29.03 37.847 28.7037 37.4873 28.4906C37.1409 28.2643 36.7479 28.1511 36.3082 28.1511C35.8819 28.1511 35.4888 28.2643 35.1291 28.4906C34.7694 28.7037 34.483 29.03 34.2698 29.4694C34.0699 29.8955 33.97 30.4349 33.97 31.0874C33.97 31.7399 34.0699 32.2858 34.2698 32.7253C34.483 33.1647 34.7627 33.491 35.1091 33.7041C35.4689 33.9171 35.8619 34.0236 36.2882 34.0236Z" fill="var(--fill-0, #F8FAFC)"/>
<path d="M43.6629 36.121V26.0537H46.061L46.3208 27.9114C46.5606 27.4719 46.8604 27.0991 47.2201 26.7928C47.5931 26.4865 48.0128 26.2468 48.4791 26.0737C48.9587 25.9006 49.485 25.814 50.0579 25.814V28.6704H49.1386C48.7389 28.6704 48.3659 28.717 48.0195 28.8102C47.6864 28.9035 47.3933 29.0566 47.1402 29.2697C46.887 29.4694 46.6938 29.7491 46.5606 30.1086C46.4274 30.4681 46.3608 30.9209 46.3608 31.4669V36.121H43.6629Z" fill="var(--fill-0, #F8FAFC)"/>
<path d="M56.4536 36.3607C55.441 36.3607 54.5417 36.1476 53.7557 35.7215C52.983 35.2821 52.3768 34.6762 51.9371 33.9038C51.5108 33.1181 51.2976 32.2126 51.2976 31.1872C51.2976 30.1352 51.5108 29.2097 51.9371 28.4107C52.3768 27.5984 52.983 26.9659 53.7557 26.5131C54.5284 26.0471 55.4277 25.814 56.4536 25.814C57.4528 25.814 58.3255 26.0337 59.0716 26.4732C59.8176 26.9126 60.3972 27.5052 60.8102 28.2509C61.2232 28.9967 61.4297 29.8423 61.4297 30.7877C61.4297 30.9209 61.4297 31.074 61.4297 31.2472C61.4297 31.407 61.4164 31.5734 61.3898 31.7465H53.2161V30.1086H58.7118C58.6719 29.4561 58.4387 28.9434 58.0124 28.5705C57.5994 28.1977 57.0798 28.0112 56.4536 28.0112C56.0006 28.0112 55.5809 28.1178 55.1946 28.3308C54.8082 28.5306 54.5018 28.8435 54.2753 29.2697C54.0621 29.6958 53.9555 30.2351 53.9555 30.8876V31.4669C53.9555 32.0129 54.0555 32.4922 54.2553 32.9051C54.4685 33.3046 54.7616 33.6175 55.1346 33.8439C55.5077 34.0569 55.9407 34.1635 56.4336 34.1635C56.9266 34.1635 57.3329 34.0569 57.6527 33.8439C57.9857 33.6308 58.2322 33.3578 58.3921 33.0249H61.1499C60.9634 33.6508 60.6503 34.2167 60.2107 34.7228C59.771 35.2288 59.2314 35.6283 58.5919 35.9212C57.9524 36.2142 57.2397 36.3607 56.4536 36.3607Z" fill="var(--fill-0, #F8FAFC)"/>
<path d="M0 57.7603V43.778H5.23593C6.36839 43.778 7.30766 43.9711 8.05374 44.3572C8.79983 44.7434 9.35273 45.2628 9.71246 45.9153C10.0722 46.5678 10.252 47.3135 10.252 48.1524C10.252 48.9248 10.0788 49.6372 9.73244 50.2897C9.38604 50.9423 8.8398 51.4749 8.09371 51.8877C7.34763 52.2872 6.39503 52.487 5.23593 52.487H2.6979V57.7603H0ZM2.6979 50.3097H5.07606C5.94205 50.3097 6.56157 50.1166 6.93461 49.7305C7.32098 49.331 7.51416 48.805 7.51416 48.1524C7.51416 47.46 7.32098 46.9273 6.93461 46.5545C6.56157 46.1683 5.94205 45.9752 5.07606 45.9752H2.6979V50.3097Z" fill="var(--fill-0, #F8FAFC)"/>
<path d="M12.209 57.7603V47.693H14.9069V57.7603H12.209ZM13.568 46.3148C13.0883 46.3148 12.6886 46.175 12.3689 45.8953C12.0625 45.6023 11.9092 45.2361 11.9092 44.7967C11.9092 44.3572 12.0625 43.9977 12.3689 43.7181C12.6886 43.4251 13.0883 43.2786 13.568 43.2786C14.0609 43.2786 14.4606 43.4251 14.767 43.7181C15.0868 43.9977 15.2466 44.3572 15.2466 44.7967C15.2466 45.2361 15.0868 45.6023 14.767 45.8953C14.4606 46.175 14.0609 46.3148 13.568 46.3148Z" fill="var(--fill-0, #F8FAFC)"/>
<path d="M16.6272 57.7603L20.2444 52.7267L16.6272 47.693H19.5449L21.963 51.1487L24.3812 47.693H27.2789L23.6617 52.7267L27.2789 57.7603H24.3812L21.963 54.2847L19.5449 57.7603H16.6272Z" fill="var(--fill-0, #F8FAFC)"/>
<path d="M33.2261 58C32.2135 58 31.3142 57.7869 30.5282 57.3608C29.7554 56.9214 29.1492 56.3155 28.7096 55.5431C28.2832 54.7574 28.0701 53.8519 28.0701 52.8265C28.0701 51.7745 28.2832 50.849 28.7096 50.0501C29.1492 49.2377 29.7554 48.6052 30.5282 48.1524C31.3009 47.6864 32.2002 47.4533 33.2261 47.4533C34.2253 47.4533 35.0979 47.6731 35.844 48.1125C36.5901 48.5519 37.1697 49.1445 37.5827 49.8903C37.9957 50.636 38.2022 51.4816 38.2022 52.427C38.2022 52.5602 38.2022 52.7133 38.2022 52.8865C38.2022 53.0463 38.1889 53.2127 38.1622 53.3858H29.9886V51.7479H35.4843C35.4443 51.0954 35.2112 50.5827 34.7849 50.2098C34.3718 49.837 33.8522 49.6506 33.2261 49.6506C32.7731 49.6506 32.3534 49.7571 31.967 49.9702C31.5807 50.1699 31.2742 50.4828 31.0478 50.909C30.8346 51.3351 30.728 51.8744 30.728 52.5269V53.1062C30.728 53.6522 30.8279 54.1316 31.0278 54.5444C31.2409 54.9439 31.534 55.2568 31.9071 55.4832C32.2801 55.6962 32.7131 55.8028 33.2061 55.8028C33.699 55.8028 34.1054 55.6962 34.4251 55.4832C34.7582 55.2701 35.0047 54.9971 35.1646 54.6642H37.9224C37.7359 55.2901 37.4228 55.856 36.9831 56.3621C36.5435 56.8681 36.0039 57.2676 35.3644 57.5606C34.7249 57.8535 34.0121 58 33.2261 58Z" fill="var(--fill-0, #F8FAFC)"/>
<path d="M40.3451 57.7603V43.3785H43.043V57.7603H40.3451Z" fill="var(--fill-0, #F8FAFC)"/>
<path d="M49.7232 58C48.8039 58 48.0045 57.8535 47.3251 57.5606C46.6456 57.2676 46.1127 56.8614 45.7263 56.3421C45.3399 55.8228 45.1201 55.2368 45.0668 54.5843H47.7447C47.8113 54.8373 47.9246 55.0704 48.0845 55.2834C48.2443 55.4832 48.4575 55.643 48.724 55.7628C48.9904 55.8827 49.3102 55.9426 49.6832 55.9426C50.043 55.9426 50.3361 55.896 50.5625 55.8028C50.789 55.6962 50.9556 55.5564 51.0622 55.3833C51.1821 55.2102 51.242 55.0304 51.242 54.844C51.242 54.5643 51.1621 54.3513 51.0022 54.2048C50.8423 54.045 50.6092 53.9185 50.3027 53.8253C49.9963 53.7321 49.6233 53.6388 49.1836 53.5456C48.704 53.4524 48.231 53.3392 47.7647 53.2061C47.3117 53.0596 46.9054 52.8798 46.5457 52.6667C46.1859 52.4537 45.8995 52.1807 45.6863 51.8478C45.4732 51.5149 45.3666 51.1021 45.3666 50.6093C45.3666 50.0101 45.5265 49.4774 45.8462 49.0114C46.166 48.532 46.6323 48.1524 47.2451 47.8728C47.858 47.5932 48.5974 47.4533 49.4634 47.4533C50.6758 47.4533 51.635 47.7263 52.3412 48.2723C53.0473 48.8183 53.467 49.5707 53.6002 50.5294H51.0622C50.9822 50.2232 50.8024 49.9835 50.5226 49.8104C50.2561 49.6239 49.8964 49.5307 49.4434 49.5307C48.9638 49.5307 48.5974 49.6173 48.3443 49.7904C48.0911 49.9635 47.9646 50.1899 47.9646 50.4695C47.9646 50.6559 48.0445 50.8224 48.2044 50.9689C48.3776 51.1154 48.6174 51.2419 48.9238 51.3484C49.2302 51.4416 49.6033 51.5348 50.043 51.6281C50.8157 51.7879 51.4952 51.9743 52.0814 52.1873C52.6676 52.3871 53.1272 52.6801 53.4603 53.0662C53.7934 53.4391 53.9599 53.9851 53.9599 54.7042C53.9599 55.3434 53.7867 55.916 53.4403 56.422C53.0939 56.9147 52.601 57.3009 51.9615 57.5805C51.3353 57.8602 50.5892 58 49.7232 58Z" fill="var(--fill-0, #F8FAFC)"/>
</g>
</svg>
