<svg preserveAspectRatio="none" width="100%" height="100%" overflow="visible" style="display: block;" viewBox="0 0 51.5396 58" fill="none" xmlns="http://www.w3.org/2000/svg">
<g id="Group 2">
<g id="Group 1">
<path id="Vector" d="M16.7521 0C17.0879 0.247804 16.6654 0.557999 16.9618 1.05411C17.0442 1.02998 17.0116 1.04957 17.0739 0.994293C18.5927 -0.352599 21.0335 -0.116003 22.7807 0.58758C24.1444 1.13685 25.4134 1.9321 26.9071 1.88859C27.0454 1.88455 27.0646 1.8686 27.2085 1.90464L27.2226 1.98344C26.9505 2.42271 26.6365 2.50191 26.1585 2.63124C27.1706 3.26087 28.4275 4.38066 29.3599 5.15597C29.693 5.433 30.0908 6.27162 30.0742 6.71624L30.0186 6.76455C29.8536 6.70604 29.3886 6.23573 29.007 6.00827C29.5376 6.91558 29.8086 7.75021 29.6602 8.82053C29.6224 9.09165 29.4164 9.80064 29.2089 9.95031C29.1958 9.67757 29.216 9.28549 29.0318 9.1017L28.9772 9.1227C28.9182 9.56136 28.8324 10.5065 28.3432 10.6825C28.1999 10.5245 28.3609 9.84097 28.3437 9.44031L28.3392 9.35263C28.209 9.56141 28.1272 9.76808 27.9136 9.8284C27.7592 9.75515 27.6996 9.61295 27.6047 9.46141C27.421 9.99569 27.1408 10.6141 26.7612 11.0387C26.5038 11.327 26.2817 11.4991 26.059 11.8266C26.054 12.0122 26.0777 11.9777 26.212 12.1684L26.1282 12.233C25.9884 12.166 25.9687 12.1507 25.8132 12.1161C25.1343 12.5595 25.9677 13.9435 25.7032 14.4342C25.528 14.7584 25.0545 14.6478 24.786 14.7272C24.4205 14.8351 24.6088 15.2153 24.4018 15.5618C24.1701 15.7583 24.0151 15.5779 23.8692 15.7425C23.8894 15.8921 23.9091 15.9269 23.8531 16.0658C23.7491 16.1617 23.6779 16.1819 23.5351 16.1933C22.7658 16.2545 23.004 17.0847 22.1989 17.2541C20.8404 17.54 19.9798 16.0345 18.7739 15.9709C18.399 15.9512 17.9957 16.5333 17.7968 16.8081C18.0976 17.1659 18.5215 17.575 18.7696 17.9688C18.8925 18.1639 18.9689 18.576 19.1204 18.8748L20.7078 21.9897C21.0168 22.5884 21.4321 23.3236 21.6822 23.9314C21.4246 24.1544 21.248 24.2661 20.9627 24.4512C21.4063 25.2708 21.8759 26.0761 22.3707 26.8659C24.7945 27.0794 28.3018 28.0177 30.7899 27.7578C31.164 27.7188 32.3917 26.7879 33.4169 26.5093C32.643 25.3281 31.8591 24.1534 31.0651 22.9854C30.795 22.5813 30.5153 22.1861 30.2407 21.7863C29.955 21.3698 30.4109 21.0392 30.8303 21.0711C30.9626 21.1277 31.0333 21.213 31.113 21.3313C32.2296 22.9837 33.2745 24.7269 34.4406 26.3434C35.0216 26.4548 35.7611 26.7952 36.1933 27.213C36.3891 27.3824 36.2821 27.6836 36.3492 27.8799C36.5653 28.5146 36.7314 28.5138 36.3573 29.137C36.5804 29.4831 36.7808 30.001 36.9676 30.3942C36.9798 30.3939 36.9922 30.3937 37.0047 30.3934C37.0817 30.3919 37.1646 30.3909 37.252 30.3903C37.331 30.3898 37.4137 30.3896 37.4993 30.3897C37.5917 30.3898 37.6876 30.3902 37.7858 30.3907C37.8542 30.3911 37.9237 30.3916 37.994 30.3921C38.078 30.3928 38.1631 30.3935 38.2488 30.3942C38.3284 30.3949 38.4085 30.3956 38.4886 30.3962C38.5574 30.3968 38.6262 30.3973 38.6947 30.3978C38.7639 30.3983 38.8327 30.3987 38.9009 30.399C38.9703 30.3993 39.0391 30.3995 39.107 30.3996C39.1768 30.3997 39.2456 30.3996 39.3131 30.3993C39.3834 30.3991 39.4522 30.3986 39.5192 30.398C39.5902 30.3972 39.659 30.3962 39.7253 30.3949C39.7823 30.3938 39.8373 30.3924 39.8901 30.3907C39.9329 30.3894 39.9742 30.3879 40.0138 30.3862C40.1031 30.3822 40.1246 30.4353 40.1224 30.515C40.1212 30.5555 40.114 30.603 40.1064 30.6533C40.0976 30.7114 40.0883 30.7735 40.0876 30.8332C40.0872 30.8614 40.0888 30.8891 40.0931 30.9156C40.0999 30.9568 40.1135 30.9952 40.1375 31.0284C39.9022 31.1894 35.9207 31.0304 35.3559 31.0279C35.3832 31.0053 35.4142 30.9652 35.4471 30.9156C35.4716 30.8787 35.4973 30.8364 35.5233 30.792C35.5498 30.7468 35.5767 30.6994 35.6032 30.6533C35.6314 30.6044 35.6592 30.5569 35.6856 30.515C35.7213 30.4586 35.7546 30.4123 35.7834 30.3862L35.8692 30.3877L36.1055 30.3921L36.4276 30.398L36.7162 30.4034L36.7965 30.4048C36.484 30.1908 36.1746 29.9722 35.8692 29.7486C35.6178 30.0803 35.535 30.1908 35.1635 30.4159C34.9222 30.5618 34.7127 30.7188 34.4169 30.7234C33.6562 30.7355 32.8959 30.7476 32.1372 30.7082C31.5527 30.6653 31.0312 30.524 30.421 30.5436C28.1191 30.6173 25.8223 30.7557 23.5179 30.739C22.758 30.7244 21.9406 30.7814 21.1932 30.6486C20.2826 30.4866 19.5269 29.5235 19.0016 28.8231C18.4596 28.1004 17.96 27.2942 17.4769 26.5297C17.304 26.6373 17.068 26.751 16.8832 26.8466C16.6687 26.5116 16.0439 25.317 15.7747 25.1948C15.6336 25.5111 15.7747 26.9694 15.7747 27.2579C15.7747 27.7526 15.7747 28.0823 15.7747 28.206C15.7747 29.4838 16.5314 30.8829 16.4616 32.21C16.9094 33.0934 17.3745 33.2635 16.6264 34.1822L16.8523 34.6224C17.4469 34.7233 18.1795 34.9248 18.776 35.0717L22.0935 35.9015C22.0933 35.1464 22.0986 34.3917 22.1094 33.6365C21.5306 33.6411 19.6718 33.7178 19.2435 33.5406C18.866 33.1459 18.9185 31.6744 19.1602 31.2105C19.3153 30.9127 20.5527 31.0399 20.8926 31.0303C21.3343 31.0182 21.8394 31.0303 22.2897 31.0303L29.1201 31.0272L35.8203 31.0279L36.1055 31.0279L36.4276 31.028L36.7162 31.028L37.0047 31.0281L37.252 31.0281L37.4993 31.0281L37.7858 31.0281L37.994 31.0282L38.2488 31.0282L38.4886 31.0282L38.6947 31.0282L38.9009 31.0283L39.107 31.0283L39.3131 31.0283L39.5192 31.0283L39.7253 31.0283L39.8901 31.0284L43.799 31.0288C46.1124 31.0293 48.4294 31.0313 50.7429 31.0247C50.9367 31.0242 51.2169 31.057 51.3607 31.1994C51.5233 31.3594 51.5177 31.5553 51.5193 31.7637C51.5314 32.2832 51.6778 33.6623 50.963 33.6597C50.2189 33.6572 49.3986 33.6305 48.6369 33.6481L48.6379 51.0817L48.6374 55.379C48.6369 55.9267 48.6727 57.4512 48.5622 57.8808C48.2447 58.004 46.1574 58.0529 45.9504 57.8924C45.7682 57.431 45.855 54.6839 45.853 53.9484L45.8429 45.8324L45.8398 39.4871C45.8383 38.367 45.8 36.9793 45.8595 35.8758L24.8854 35.8798L24.8798 36.6835C26.6486 37.1817 29.2009 37.6421 30.0338 39.4775C30.7294 41.0091 30.212 43.1575 29.9853 44.7783L29.1357 50.7304C29.0671 51.2054 28.797 53.3674 28.7087 53.6163C28.5815 53.7687 28.5573 53.7692 28.3669 53.853L28.3139 53.8758C28.4104 54.0378 28.5926 54.1342 28.7541 54.2498C29.6819 54.9136 30.635 55.2109 31.7001 55.5461C32.1832 55.7117 32.6648 56.0363 32.8616 56.5244C33.0136 56.9015 33.1918 57.8641 32.5921 57.9353C31.9611 58.0105 31.2877 57.9853 30.6506 57.9843L27.0787 57.9757L24.2791 57.9853C23.7764 57.9878 22.6811 58.0706 22.2349 57.8142C22.1524 57.7667 22.1024 57.2604 22.1017 57.1206C22.0939 55.4775 22.0995 53.8328 22.0997 52.1887L22.0976 47.2347L22.0955 42.2806C21.9147 42.2655 21.7131 42.2357 21.5311 42.214C20.8947 40.9091 19.7095 41.269 18.4357 41.27L12.2141 41.2685C11.9003 41.2685 11.5786 41.2741 11.2698 41.269C9.83279 41.2438 8.68878 41.4977 7.54098 40.4295C6.62352 39.5754 6.14099 38.5351 6.0682 37.2862C5.64008 37.2271 5.49485 37.1605 5.44104 36.6789C5.40313 36.2791 5.47279 35.8612 5.46335 35.4624C5.34872 30.5351 6.48117 25.4542 8.3648 20.9187C9.33254 18.7678 10.4832 16.5759 12.4629 15.1913C12.956 14.8465 12.2393 13.567 13.9004 14.0733C14.1137 13.7303 14.7414 12.627 14.5079 12.2635L14.2271 12.2879C14.1997 12.2677 14.1725 12.2475 14.1452 12.2272C13.9338 11.2958 13.439 10.1397 13.1503 9.25914C12.9652 8.69453 13.023 8.4435 12.884 8.16682L12.738 8.17727C12.6195 8.10715 12.6057 8.05001 12.5807 7.90872C12.1486 5.45945 13.3749 2.24856 16.0125 1.69525C15.78 1.59212 15.4741 1.50227 15.3825 1.28571C15.6789 0.895253 15.9469 1.2639 16.2568 1.24856C16.4791 0.58329 16.1022 0.537253 16.7521 0ZM31.011 22.5497C31.1473 22.4474 31.2917 22.332 31.4376 22.2477C31.3609 22.1319 31.1847 21.8201 31.0873 21.7781L30.6466 22.0639C30.74 22.1948 30.9061 22.4456 31.011 22.5497Z" fill="var(--fill-0, #F8FAFC)"/>
<path id="Vector_2" d="M1.00745 20.1562C2.96014 19.9867 2.81208 21.5376 3.02854 23.0376C3.17463 24.0877 3.33404 25.1359 3.50673 26.1819C4.31344 31.124 5.0044 36.2159 5.85815 41.1316C6.98717 41.1806 8.4118 41.1432 9.55753 41.1437L16.6288 41.1427C17.9022 41.1422 19.1796 41.1235 20.4512 41.1589C21.3222 41.1831 21.6919 41.6409 21.6918 42.5011C21.6916 43.9448 20.7732 43.9302 19.6607 43.9282L21.1559 53.7555C21.3179 54.813 21.5851 56.3037 21.6683 57.3951C21.6736 57.4647 21.627 57.4753 21.5584 57.5288C21.1558 57.5778 20.0032 57.5909 19.63 57.4935C19.5215 57.392 19.5208 57.3744 19.4907 57.1911C19.3089 56.0816 19.1388 54.9463 18.9656 53.8373L17.8639 46.7242C17.7672 45.858 17.5736 44.7939 17.4394 43.9165L6.61852 43.9236C6.0267 47.2613 5.64114 50.7722 5.05099 54.1255C4.95715 54.6586 4.63222 57.0866 4.44812 57.4784C4.17982 57.5995 2.63935 57.6051 2.40871 57.4607C2.32865 57.1078 2.89522 53.8433 2.98467 53.2608C3.48755 50.0932 3.96579 46.9216 4.41929 43.7469C3.05227 43.0377 3.25136 41.8802 2.98185 40.5657C2.93147 40.3199 2.90179 40.0599 2.86236 39.8111L1.87882 33.5344L0.638904 25.6914C0.423206 24.3275 0.186661 22.9617 0.0139211 21.5925C-0.0833019 20.8219 0.337291 20.4099 1.00745 20.1562Z" fill="var(--fill-0, #FBC44C)"/>
</g>
<path id="Vector_3" d="M39.0552 30.9185V31.0415H38.9487V30.9185H39.0552ZM38.8491 30.9185V31.0415H38.7427V30.9185H38.8491ZM38.6431 30.9185V31.0415H38.5366V30.9185H38.6431ZM38.437 30.9185V31.0415H38.2974V30.9185H38.437ZM38.1968 30.9185V31.0396L38.0425 31.0356V30.9185H38.1968ZM39.2612 30.9185V31.0356L39.1558 31.0396V30.9185H39.2612ZM39.8384 30.9185V31.0347H39.7739V30.9185H39.8384ZM39.6733 30.9185V31.0347H39.5679V30.9185H39.6733ZM39.4673 30.9185V31.0347H39.3618V30.9185H39.4673ZM37.9419 30.9185V31.0347H37.8345V30.9185H37.9419ZM37.7339 30.9185V31.0327L37.5474 31.0278V30.9185H37.7339ZM40.0493 30.9185C40.0519 30.9337 40.0545 30.9507 40.0581 30.9673C40.0611 30.9812 40.0648 30.9956 40.0689 31.0093C40.0607 31.0112 40.0518 31.0142 40.0415 31.0161C40.0138 31.0212 39.9794 31.0246 39.939 31.0288V30.9185H40.0493ZM37.4478 30.9185V31.0249L37.3003 31.019V30.9185H37.4478ZM36.3911 30.9185L36.3931 31.0161L36.1538 31.0093V30.9185H36.3911ZM36.6978 30.9185L36.7026 31.0093L36.4937 31.0161L36.4917 30.9185H36.6978ZM37.2007 30.9185V31.0151L37.0718 31.0103L37.0698 30.9185H37.2007ZM36.9692 30.9185L36.9722 31.0083H36.8023L36.7974 30.9185H36.9692ZM36.0542 30.9185V31.0044L35.8374 30.9917L35.8472 30.9185H36.0542ZM35.7466 30.9185L35.7358 30.9985C35.6071 30.9951 35.499 30.9922 35.4175 30.9907C35.436 30.9663 35.4549 30.9405 35.4702 30.9185H35.7466ZM37.9419 30.8159V30.8179H37.8345V30.8149L37.9419 30.8159ZM37.7339 30.814V30.8179H37.5474V30.812L37.7339 30.814ZM37.4478 30.811V30.8179H37.3003V30.8101L37.4478 30.811ZM37.2007 30.8091V30.8179H37.0669L37.0659 30.8081L37.2007 30.8091ZM36.9653 30.8071L36.9663 30.8179H36.7915L36.7905 30.8052L36.9653 30.8071ZM36.6899 30.8042L36.6919 30.8179H36.4888L36.4878 30.8022L36.6899 30.8042ZM36.3882 30.8013L36.3892 30.8179H36.1538V30.7993L36.3882 30.8013ZM36.0542 30.7983V30.8179H35.8589L35.8608 30.7974L36.0542 30.7983ZM35.7612 30.7964L35.7583 30.8179H35.5357C35.5403 30.8102 35.5447 30.8023 35.5493 30.7944L35.7612 30.7964ZM40.0493 30.6558C40.0458 30.6816 40.0426 30.7081 40.0405 30.7349L39.939 30.7339V30.6558H40.0493ZM39.8384 30.6558V30.7329L39.7739 30.7319V30.6558H39.8384ZM39.6733 30.6558V30.731H39.5679V30.6558H39.6733ZM39.4673 30.6558V30.73L39.3618 30.729V30.6558H39.4673ZM39.2612 30.6558V30.728L39.1558 30.7271V30.6558H39.2612ZM39.0552 30.6558V30.7261L38.9487 30.7251V30.6558H39.0552ZM38.8491 30.6558V30.7241L38.7427 30.7231V30.6558H38.8491ZM38.6431 30.6558V30.7222L38.5366 30.7212V30.6558H38.6431ZM38.437 30.6558V30.7202L38.2974 30.7192V30.6558H38.437ZM38.1968 30.6558V30.7183L38.0425 30.7163V30.6558H38.1968ZM37.9419 30.6558V30.7153L37.8345 30.7144V30.6558H37.9419ZM37.7339 30.6558V30.7134L37.5474 30.7124V30.6558H37.7339ZM37.4478 30.6558V30.7114L37.3003 30.7104V30.6558H37.4478ZM37.2007 30.6558V30.7095L37.063 30.7075L37.062 30.6558H37.2007ZM36.9614 30.6558L36.9624 30.7065L36.7857 30.7056L36.7827 30.6558H36.9614ZM36.6821 30.6558L36.6841 30.7046L36.4849 30.7026L36.4839 30.6558H36.6821ZM36.3843 30.6558L36.3853 30.7017L36.1538 30.6997V30.6558H36.3843ZM36.0542 30.6558V30.6987L35.8735 30.6968L35.8784 30.6558H36.0542ZM35.7788 30.6558L35.773 30.6958L35.6069 30.6948C35.6145 30.6816 35.6229 30.6689 35.6304 30.6558H35.7788ZM40.0649 30.5171C40.0635 30.5295 40.063 30.5426 40.061 30.5562H39.939V30.5171H40.0649ZM39.8384 30.5171V30.5562H39.7739V30.5171H39.8384ZM39.6733 30.5171V30.5562H39.5679V30.5171H39.6733ZM39.4673 30.5171V30.5562H39.3618V30.5171H39.4673ZM39.2612 30.5171V30.5562H39.1558V30.5171H39.2612ZM39.0552 30.5171V30.5562H38.9487V30.5171H39.0552ZM38.8491 30.5171V30.5562H38.7427V30.5171H38.8491ZM38.6431 30.5171V30.5562H38.5366V30.5171H38.6431ZM38.437 30.5171V30.5562H38.2974V30.5171H38.437ZM38.1968 30.5171V30.5562H38.0425V30.5171H38.1968ZM37.9419 30.5171V30.5562H37.8345V30.5171H37.9419ZM37.7339 30.5171V30.5562H37.5474V30.5171H37.7339ZM37.4478 30.5171V30.5562H37.3003V30.5171H37.4478ZM37.2007 30.5171V30.5562H37.0591L37.0571 30.5171H37.2007ZM36.9575 30.5171L36.9595 30.5562H36.7769L36.7739 30.5171H36.9575ZM36.6743 30.5171L36.6763 30.5562H36.4819L36.48 30.5171H36.6743ZM36.3804 30.5171L36.3823 30.5562H36.1538V30.5171H36.3804ZM36.0542 30.5171V30.5562H35.8911L35.896 30.5171H36.0542ZM35.7954 30.5171L35.7905 30.5562H35.689C35.6969 30.5428 35.7047 30.5297 35.7124 30.5171H35.7954ZM40.0142 30.3882C40.0485 30.3867 40.057 30.3965 40.0601 30.4009C40.0626 30.4045 40.064 30.4099 40.0659 30.4175H39.939V30.3911C39.9646 30.3902 39.9897 30.3892 40.0142 30.3882ZM39.8384 30.4175H39.7739V30.395C39.7957 30.3945 39.8172 30.3946 39.8384 30.394V30.4175ZM39.6733 30.4175H39.5679V30.3989C39.6036 30.3985 39.6388 30.3976 39.6733 30.397V30.4175ZM39.4673 30.4175H39.3618V30.4009C39.3974 30.4007 39.4326 30.4002 39.4673 30.3999V30.4175ZM39.2612 30.4019V30.4175H39.1558V30.4019C39.1912 30.4019 39.2264 30.4019 39.2612 30.4019ZM39.0552 30.4019V30.4175H38.9487V30.4019C38.9844 30.402 39.0199 30.4018 39.0552 30.4019ZM38.8491 30.4009V30.4175H38.7427V30.3999L38.8491 30.4009ZM38.6431 30.3989V30.4175H38.5366V30.3989H38.6431ZM38.437 30.3979V30.4175H38.2974V30.397L38.437 30.3979ZM38.1968 30.396V30.4175H38.0425V30.395L38.1968 30.396ZM37.9419 30.394V30.4175H37.8345V30.3931L37.9419 30.394ZM37.7339 30.3921V30.4175H37.5474V30.3921C37.6082 30.3922 37.6705 30.3918 37.7339 30.3921ZM37.4478 30.4175H37.3003V30.3921C37.3482 30.3919 37.3974 30.3921 37.4478 30.3921V30.4175ZM37.2007 30.4175H37.0552L37.0542 30.395C37.1011 30.3942 37.1501 30.3935 37.2007 30.3931V30.4175ZM36.9546 30.4175H36.7681L36.7671 30.396H36.9536L36.9546 30.4175ZM36.6675 30.397L36.6685 30.4175H36.478L36.4771 30.397H36.6675ZM36.3765 30.396L36.3774 30.4175H36.1538V30.394L36.3765 30.396ZM36.0542 30.3931V30.4175H35.9087L35.9116 30.3901L36.0542 30.3931ZM35.811 30.3882L35.8081 30.4175H35.7788C35.7875 30.4061 35.7957 30.3964 35.8032 30.3882H35.811Z" stroke="var(--stroke-0, #F8FAFC)" stroke-width="0.1"/>
</g>
</svg>
